<mxfile host="app.diagrams.net" modified="2023-05-30T12:03:37.674Z" agent="Mozilla/5.0 (Macintosh; Intel Mac OS X 10_15_7) AppleWebKit/537.36 (KHTML, like Gecko) Chrome/113.0.0.0 Safari/537.36" etag="Hm1JK6z1JCraM99lC5aC" version="21.3.5" type="device">
  <diagram id="C5RBs43oDa-KdzZeNtuy" name="Page-1">
    <mxGraphModel dx="954" dy="616" grid="1" gridSize="10" guides="1" tooltips="1" connect="1" arrows="1" fold="1" page="1" pageScale="1" pageWidth="827" pageHeight="1169" math="0" shadow="0">
      <root>
        <mxCell id="WIyWlLk6GJQsqaUBKTNV-0" />
        <mxCell id="WIyWlLk6GJQsqaUBKTNV-1" parent="WIyWlLk6GJQsqaUBKTNV-0" />
        <mxCell id="7tNLprXuFD5jM6Kmj62w-0" style="edgeStyle=orthogonalEdgeStyle;rounded=0;orthogonalLoop=1;jettySize=auto;html=1;exitX=1;exitY=0.5;exitDx=0;exitDy=0;" parent="WIyWlLk6GJQsqaUBKTNV-1" source="WIyWlLk6GJQsqaUBKTNV-3" target="WIyWlLk6GJQsqaUBKTNV-7" edge="1">
          <mxGeometry relative="1" as="geometry" />
        </mxCell>
        <mxCell id="WIyWlLk6GJQsqaUBKTNV-3" value="Entities Links" style="rounded=1;whiteSpace=wrap;html=1;fontSize=12;glass=0;strokeWidth=1;shadow=0;" parent="WIyWlLk6GJQsqaUBKTNV-1" vertex="1">
          <mxGeometry x="20" y="230" width="120" height="40" as="geometry" />
        </mxCell>
        <mxCell id="7tNLprXuFD5jM6Kmj62w-2" style="edgeStyle=orthogonalEdgeStyle;rounded=0;orthogonalLoop=1;jettySize=auto;html=1;exitX=1;exitY=0.5;exitDx=0;exitDy=0;entryX=0;entryY=0.5;entryDx=0;entryDy=0;" parent="WIyWlLk6GJQsqaUBKTNV-1" source="WIyWlLk6GJQsqaUBKTNV-7" target="WIyWlLk6GJQsqaUBKTNV-12" edge="1">
          <mxGeometry relative="1" as="geometry" />
        </mxCell>
        <mxCell id="WIyWlLk6GJQsqaUBKTNV-7" value="Entities label" style="rounded=1;whiteSpace=wrap;html=1;fontSize=12;glass=0;strokeWidth=1;shadow=0;" parent="WIyWlLk6GJQsqaUBKTNV-1" vertex="1">
          <mxGeometry x="330" y="230" width="120" height="40" as="geometry" />
        </mxCell>
        <mxCell id="7tNLprXuFD5jM6Kmj62w-13" style="edgeStyle=orthogonalEdgeStyle;rounded=0;orthogonalLoop=1;jettySize=auto;html=1;exitX=0;exitY=0.5;exitDx=0;exitDy=0;entryX=1;entryY=0.5;entryDx=0;entryDy=0;" parent="WIyWlLk6GJQsqaUBKTNV-1" source="WIyWlLk6GJQsqaUBKTNV-11" target="7tNLprXuFD5jM6Kmj62w-12" edge="1">
          <mxGeometry relative="1" as="geometry" />
        </mxCell>
        <mxCell id="WIyWlLk6GJQsqaUBKTNV-11" value="&lt;pre style=&quot;box-sizing: unset; font-family: var(--jp-code-font-family); font-size: var(--jp-code-font-size); line-height: var(--jp-code-line-height); color: var(--jp-content-font-color1); border: none; margin: 0px; padding: 0px; overflow: auto; word-break: break-all; overflow-wrap: break-word; font-style: normal; font-variant-ligatures: normal; font-variant-caps: normal; font-weight: 400; letter-spacing: normal; orphans: 2; text-align: left; text-indent: 0px; text-transform: none; widows: 2; word-spacing: 0px; -webkit-text-stroke-width: 0px; background-color: rgb(255, 255, 255); text-decoration-thickness: initial; text-decoration-style: initial; text-decoration-color: initial; scroll-behavior: auto !important;&quot;&gt;Unprocessed Triple&lt;/pre&gt;" style="rounded=1;whiteSpace=wrap;html=1;fontSize=12;glass=0;strokeWidth=1;shadow=0;" parent="WIyWlLk6GJQsqaUBKTNV-1" vertex="1">
          <mxGeometry x="660" y="470" width="120" height="40" as="geometry" />
        </mxCell>
        <mxCell id="7tNLprXuFD5jM6Kmj62w-5" style="edgeStyle=orthogonalEdgeStyle;rounded=0;orthogonalLoop=1;jettySize=auto;html=1;entryX=0.5;entryY=0;entryDx=0;entryDy=0;" parent="WIyWlLk6GJQsqaUBKTNV-1" target="WIyWlLk6GJQsqaUBKTNV-11" edge="1">
          <mxGeometry relative="1" as="geometry">
            <mxPoint x="720" y="270" as="sourcePoint" />
          </mxGeometry>
        </mxCell>
        <mxCell id="7tNLprXuFD5jM6Kmj62w-6" style="edgeStyle=orthogonalEdgeStyle;rounded=0;orthogonalLoop=1;jettySize=auto;html=1;exitX=0.25;exitY=1;exitDx=0;exitDy=0;entryX=0.5;entryY=0;entryDx=0;entryDy=0;" parent="WIyWlLk6GJQsqaUBKTNV-1" source="WIyWlLk6GJQsqaUBKTNV-12" target="7tNLprXuFD5jM6Kmj62w-7" edge="1">
          <mxGeometry relative="1" as="geometry">
            <mxPoint x="570" y="310" as="targetPoint" />
          </mxGeometry>
        </mxCell>
        <mxCell id="WIyWlLk6GJQsqaUBKTNV-12" value="Abstracts" style="rounded=1;whiteSpace=wrap;html=1;fontSize=12;glass=0;strokeWidth=1;shadow=0;" parent="WIyWlLk6GJQsqaUBKTNV-1" vertex="1">
          <mxGeometry x="635" y="230" width="120" height="40" as="geometry" />
        </mxCell>
        <mxCell id="7tNLprXuFD5jM6Kmj62w-1" value="Format links into label" style="text;html=1;align=center;verticalAlign=middle;resizable=0;points=[];autosize=1;strokeColor=none;fillColor=none;" parent="WIyWlLk6GJQsqaUBKTNV-1" vertex="1">
          <mxGeometry x="180" y="225" width="140" height="30" as="geometry" />
        </mxCell>
        <mxCell id="7tNLprXuFD5jM6Kmj62w-3" value="Use label to extract &lt;br&gt;abstract from DBpedia" style="text;html=1;align=center;verticalAlign=middle;resizable=0;points=[];autosize=1;strokeColor=none;fillColor=none;" parent="WIyWlLk6GJQsqaUBKTNV-1" vertex="1">
          <mxGeometry x="470" y="200" width="140" height="40" as="geometry" />
        </mxCell>
        <mxCell id="7tNLprXuFD5jM6Kmj62w-10" style="edgeStyle=orthogonalEdgeStyle;rounded=0;orthogonalLoop=1;jettySize=auto;html=1;exitX=0.5;exitY=1;exitDx=0;exitDy=0;entryX=0.25;entryY=0;entryDx=0;entryDy=0;" parent="WIyWlLk6GJQsqaUBKTNV-1" source="7tNLprXuFD5jM6Kmj62w-7" target="WIyWlLk6GJQsqaUBKTNV-11" edge="1">
          <mxGeometry relative="1" as="geometry" />
        </mxCell>
        <mxCell id="7tNLprXuFD5jM6Kmj62w-7" value="&lt;pre style=&quot;box-sizing: unset; font-family: var(--jp-code-font-family); font-size: var(--jp-code-font-size); line-height: var(--jp-code-line-height); color: var(--jp-content-font-color1); border: none; margin: 0px; padding: 0px; overflow: auto; word-break: break-all; overflow-wrap: break-word; font-style: normal; font-variant-ligatures: normal; font-variant-caps: normal; font-weight: 400; letter-spacing: normal; orphans: 2; text-align: left; text-indent: 0px; text-transform: none; widows: 2; word-spacing: 0px; -webkit-text-stroke-width: 0px; text-decoration-thickness: initial; text-decoration-style: initial; text-decoration-color: initial; scroll-behavior: auto !important;&quot;&gt;Abstracts split into &lt;/pre&gt;&lt;pre style=&quot;box-sizing: unset; font-family: var(--jp-code-font-family); font-size: var(--jp-code-font-size); line-height: var(--jp-code-line-height); color: var(--jp-content-font-color1); border: none; margin: 0px; padding: 0px; overflow: auto; word-break: break-all; overflow-wrap: break-word; font-style: normal; font-variant-ligatures: normal; font-variant-caps: normal; font-weight: 400; letter-spacing: normal; orphans: 2; text-align: left; text-indent: 0px; text-transform: none; widows: 2; word-spacing: 0px; -webkit-text-stroke-width: 0px; text-decoration-thickness: initial; text-decoration-style: initial; text-decoration-color: initial; scroll-behavior: auto !important;&quot;&gt;sentences&lt;/pre&gt;" style="rounded=1;whiteSpace=wrap;html=1;fontSize=12;glass=0;strokeWidth=1;shadow=0;" parent="WIyWlLk6GJQsqaUBKTNV-1" vertex="1">
          <mxGeometry x="515" y="350" width="120" height="40" as="geometry" />
        </mxCell>
        <mxCell id="7tNLprXuFD5jM6Kmj62w-8" value="sentence splitting" style="text;html=1;align=center;verticalAlign=middle;resizable=0;points=[];autosize=1;strokeColor=none;fillColor=none;" parent="WIyWlLk6GJQsqaUBKTNV-1" vertex="1">
          <mxGeometry x="510" y="275" width="120" height="30" as="geometry" />
        </mxCell>
        <mxCell id="7tNLprXuFD5jM6Kmj62w-9" value="Stanford IE on abstracts" style="text;html=1;align=center;verticalAlign=middle;resizable=0;points=[];autosize=1;strokeColor=none;fillColor=none;" parent="WIyWlLk6GJQsqaUBKTNV-1" vertex="1">
          <mxGeometry x="720" y="350" width="150" height="30" as="geometry" />
        </mxCell>
        <mxCell id="7tNLprXuFD5jM6Kmj62w-11" value="ClauCy on Sentences&lt;br&gt;&amp;nbsp;of abstract" style="text;html=1;align=center;verticalAlign=middle;resizable=0;points=[];autosize=1;strokeColor=none;fillColor=none;" parent="WIyWlLk6GJQsqaUBKTNV-1" vertex="1">
          <mxGeometry x="440" y="410" width="140" height="40" as="geometry" />
        </mxCell>
        <mxCell id="7tNLprXuFD5jM6Kmj62w-16" style="edgeStyle=orthogonalEdgeStyle;rounded=0;orthogonalLoop=1;jettySize=auto;html=1;exitX=0;exitY=0.5;exitDx=0;exitDy=0;entryX=1;entryY=0.5;entryDx=0;entryDy=0;" parent="WIyWlLk6GJQsqaUBKTNV-1" source="7tNLprXuFD5jM6Kmj62w-12" target="7tNLprXuFD5jM6Kmj62w-15" edge="1">
          <mxGeometry relative="1" as="geometry" />
        </mxCell>
        <mxCell id="7tNLprXuFD5jM6Kmj62w-12" value="&lt;pre style=&quot;box-sizing: unset; font-family: var(--jp-code-font-family); font-size: var(--jp-code-font-size); line-height: var(--jp-code-line-height); color: var(--jp-content-font-color1); border: none; margin: 0px; padding: 0px; overflow: auto; word-break: break-all; overflow-wrap: break-word; font-style: normal; font-variant-ligatures: normal; font-variant-caps: normal; font-weight: 400; letter-spacing: normal; orphans: 2; text-align: left; text-indent: 0px; text-transform: none; widows: 2; word-spacing: 0px; -webkit-text-stroke-width: 0px; background-color: rgb(255, 255, 255); text-decoration-thickness: initial; text-decoration-style: initial; text-decoration-color: initial; scroll-behavior: auto !important;&quot;&gt;Formatted Triple&lt;/pre&gt;" style="rounded=1;whiteSpace=wrap;html=1;fontSize=12;glass=0;strokeWidth=1;shadow=0;" parent="WIyWlLk6GJQsqaUBKTNV-1" vertex="1">
          <mxGeometry x="350" y="470" width="120" height="40" as="geometry" />
        </mxCell>
        <mxCell id="7tNLprXuFD5jM6Kmj62w-14" value="Format triples and &lt;br&gt;remove bad triples" style="text;html=1;align=center;verticalAlign=middle;resizable=0;points=[];autosize=1;strokeColor=none;fillColor=none;" parent="WIyWlLk6GJQsqaUBKTNV-1" vertex="1">
          <mxGeometry x="500" y="490" width="120" height="40" as="geometry" />
        </mxCell>
        <mxCell id="7tNLprXuFD5jM6Kmj62w-15" value="&lt;pre style=&quot;box-sizing: unset; font-family: var(--jp-code-font-family); font-size: var(--jp-code-font-size); line-height: var(--jp-code-line-height); color: var(--jp-content-font-color1); border: none; margin: 0px; padding: 0px; overflow: auto; word-break: break-all; overflow-wrap: break-word; font-style: normal; font-variant-ligatures: normal; font-variant-caps: normal; font-weight: 400; letter-spacing: normal; orphans: 2; text-align: left; text-indent: 0px; text-transform: none; widows: 2; word-spacing: 0px; -webkit-text-stroke-width: 0px; background-color: rgb(255, 255, 255); text-decoration-thickness: initial; text-decoration-style: initial; text-decoration-color: initial; scroll-behavior: auto !important;&quot;&gt;Extracted Triples&lt;/pre&gt;" style="rounded=1;whiteSpace=wrap;html=1;fontSize=12;glass=0;strokeWidth=1;shadow=0;" parent="WIyWlLk6GJQsqaUBKTNV-1" vertex="1">
          <mxGeometry x="20" y="470" width="120" height="40" as="geometry" />
        </mxCell>
        <mxCell id="7tNLprXuFD5jM6Kmj62w-17" value="Link check and add&lt;br&gt;&amp;nbsp;to knowledge base" style="text;html=1;align=center;verticalAlign=middle;resizable=0;points=[];autosize=1;strokeColor=none;fillColor=none;" parent="WIyWlLk6GJQsqaUBKTNV-1" vertex="1">
          <mxGeometry x="185" y="445" width="130" height="40" as="geometry" />
        </mxCell>
      </root>
    </mxGraphModel>
  </diagram>
</mxfile>
